:FULLY-SPECIFIED
:FORCE-ALL-JOINTS-BE-3DOF
:DEGREES
102
root 7.34243 16.6672 -26.7266 3.51601 11.6331 -5.15143
lfemur -27.428 -6.64151 -8.39929
ltibia 39.4543 -0 0
lfoot -17.3647 -2.23026 -0.125229
ltoes 14.9159 -0 0
rfemur -28.3 -8.51384 8.35585
rtibia 67.6921 -0 0
rfoot -0.330958 6.73184 0.493012
rtoes -14.0282 0 0
lowerback 0.977963 1.86123 2.05555
upperback -1.1636 2.57635 2.14948
thorax -1.71661 1.27073 1.09009
lowerneck -10.2321 -5.00841 2.36781
upperneck -1.12215 -6.92613 0.793403
head 1.31086 -3.43613 -0.43224
lclavicle 9.49041e-15 -1.23122e-14 0
lhumerus -45.8262 -7.81471 92.689
lradius 47.0962 -0 0
lwrist 14.0875 0 0
lhand 5.95498 6.18735 -0.0404969
lfingers 7.12502 -0 0
lthumb 31.2876 33.6067 -0.0208179
rclavicle 9.49041e-15 -1.23122e-14 0
rhumerus -43.2019 0.791718 -73.5124
rradius 51.1275 -0 0
rwrist 3.35484 0 0
rhand -18.0591 -14.0238 0.129582
rfingers 7.12502 -0 0
rthumb 8.21663 -43.8954 0.101424
103
root 7.37836 16.6866 -26.7088 2.78336 12.2324 -5.03064
lfemur -26.4073 -6.27147 -8.8853
ltibia 38.9101 -0 0
lfoot -16.9864 -3.32477 -0.142709
ltoes 16.8615 -0 0
rfemur -30.6287 -6.79137 6.23657
rtibia 71.6719 -0 0
rfoot 3.78566 7.25917 0.588997
rtoes -9.37895 0 0
lowerback 1.6478 1.56492 1.92989
upperback -0.892826 2.19773 2.23922
thorax -1.81788 1.08262 1.25856
lowerneck -10.3154 -5.01494 2.29651
upperneck -0.952555 -6.93069 0.73063
head 1.38159 -3.43773 -0.447558
lclavicle 9.49041e-15 -1.23122e-14 0
lhumerus -45.5821 -8.38881 92.8161
lradius 47.0652 -0 0
lwrist 13.9575 0 0
lhand 6.24392 6.27155 -0.0405944
lfingers 7.12502 -0 0
lthumb 31.5629 33.6376 -0.0209349
rclavicle 9.49041e-15 -1.23122e-14 0
rhumerus -43.3433 1.25043 -72.6435
rradius 51.0669 -0 0
rwrist 5.17062 0 0
rhand -18.9767 -14.6237 0.160892
rfingers 7.12502 -0 0
rthumb 7.33228 -44.5488 0.122911
104
root 7.41284 16.707 -26.6927 2.03268 12.8302 -4.90497
lfemur -25.3619 -5.80218 -9.4044
ltibia 38.3625 -0 0
lfoot -16.5963 -4.45329 -0.153347
ltoes 18.9201 -0 0
rfemur -33.1182 -5.08335 4.0215
rtibia 75.69 -0 0
rfoot 7.99388 7.75116 0.670331
rtoes -4.53748 0 0
lowerback 2.34429 1.25866 1.79189
upperback -0.608226 1.80381 2.32359
thorax -1.91864 0.8873 1.42987
lowerneck -10.4052 -5.01318 2.22356
upperneck -0.786903 -6.92387 0.668444
head 1.45242 -3.43376 -0.462142
lclavicle 9.49041e-15 -1.23122e-14 0
lhumerus -45.3144 -8.99831 92.9427
lradius 47.0289 -0 0
lwrist 13.8064 0 0
lhand 6.4878 6.34561 -0.0386573
lfingers 7.12502 -0 0
lthumb 31.7949 33.6625 -0.0200191
rclavicle 9.49041e-15 -1.23122e-14 0
rhumerus -43.4601 1.72482 -71.7741
rradius 50.9947 -0 0
rwrist 7.06185 0 0
rhand -19.9315 -15.2785 0.18261
rfingers 7.12502 -0 0
rthumb 6.41213 -45.2568 0.1347
105
root 7.44599 16.7281 -26.6782 1.2719 13.413 -4.77405
lfemur -24.3016 -5.24998 -9.94623
ltibia 37.8163 -0 0
lfoot -16.2026 -5.59341 -0.156345
ltoes 21.0419 -0 0
rfemur -35.7398 -3.46854 1.76545
rtibia 79.6606 -0 0
rfoot 12.1984 8.21888 0.732221
rtoes 0.355856 -0 0
lowerback 3.05943 0.947546 1.6402
upperback -0.313601 1.40078 2.40037
thorax -2.01807 0.687868 1.60245
lowerneck -10.4999 -5.00229 2.14958
upperneck -0.625612 -6.90457 0.60839
head 1.52298 -3.42366 -0.475407
lclavicle 9.49041e-15 -1.23122e-14 0
lhumerus -45.0301 -9.63102 93.0648
lradius 46.9925 -0 0
lwrist 13.6417 0 0
lhand 6.69228 6.40989 -0.0350538
lfingers 7.12502 -0 0
lthumb 31.989 33.6816 -0.0182548
rclavicle 9.49041e-15 -1.23122e-14 0
rhumerus -43.5505 2.19401 -70.9068
rradius 50.9268 -0 0
rwrist 8.96661 0 0
rhand -20.8811 -15.9689 0.192061
rfingers 7.12502 -0 0
rthumb 5.49696 -45.9973 0.134881
106
root 7.47794 16.7493 -26.6649 0.509034 13.9676 -4.63697
lfemur -23.2355 -4.6317 -10.5012
ltibia 37.2762 -0 0
lfoot -15.8136 -6.72273 -0.15153
ltoes 23.1768 -0 0
rfemur -38.456 -2.01796 -0.468694
rtibia 83.498 -0 0
rfoot 16.304 8.67229 0.769851
rtoes 5.16066 -0 0
lowerback 3.78524 0.636679 1.47363
upperback -0.0126962 0.994854 2.46741
thorax -2.11531 0.487402 1.77473
lowerneck -10.5982 -4.98141 2.07521
upperneck -0.4691 -6.87174 0.552015
head 1.59287 -3.40684 -0.486766
lclavicle 9.49041e-15 -1.23122e-14 0
lhumerus -44.7365 -10.2747 93.1792
lradius 46.9611 -0 0
lwrist 13.4705 0 0
lhand 6.86301 6.46475 -0.0301891
lfingers 7.12502 -0 0
lthumb 32.1507 33.695 -0.0158438
rclavicle 9.49041e-15 -1.23122e-14 0
rhumerus -43.6134 2.63706 -70.0439
rradius 50.8791 -0 0
rwrist 10.823 0 0
rhand -21.7831 -16.6758 0.188196
rfingers 7.12502 -0 0
rthumb 4.62759 -46.748 0.123274
107
root 7.50882 16.7701 -26.6524 -0.247832 14.4808 -4.49232
lfemur -22.1722 -3.96461 -11.0606
ltibia 36.7471 -0 0
lfoot -15.4374 -7.81884 -0.139349
ltoes 25.275 -0 0
rfemur -41.2215 -0.793371 -2.60929
rtibia 87.1165 -0 0
rfoot 20.2151 9.12042 0.77838
rtoes 9.73655 -0 0
lowerback 4.51371 0.33115 1.29125
upperback 0.290792 0.592273 2.5227
thorax -2.20949 0.28897 1.9451
lowerneck -10.6987 -4.94968 2.00107
upperneck -0.317786 -6.82431 0.500871
head 1.66173 -3.38274 -0.495633
lclavicle 9.49041e-15 -1.23122e-14 0
lhumerus -44.4405 -10.9169 93.2824
lradius 46.9399 -0 0
lwrist 13.3003 0 0
lhand 7.00564 6.51056 -0.0244991
lfingers 7.12502 -0 0
lthumb 32.2854 33.703 -0.013002
rclavicle 9.49041e-15 -1.23122e-14 0
rhumerus -43.6486 3.033 -69.188
rradius 50.8675 -0 0
rwrist 12.5691 0 0
rhand -22.595 -17.3798 0.171644
rfingers 7.12502 -0 0
rthumb 3.84484 -47.4866 0.101462
